<?xml version="1.0" encoding="UTF-8" standalone="no"?>
<!-- Created with Inkscape (http://www.inkscape.org/) -->

<svg
   xmlns:dc="http://purl.org/dc/elements/1.1/"
   xmlns:cc="http://creativecommons.org/ns#"
   xmlns:rdf="http://www.w3.org/1999/02/22-rdf-syntax-ns#"
   xmlns:svg="http://www.w3.org/2000/svg"
   xmlns="http://www.w3.org/2000/svg"
   xmlns:xlink="http://www.w3.org/1999/xlink"
   xmlns:sodipodi="http://sodipodi.sourceforge.net/DTD/sodipodi-0.dtd"
   xmlns:inkscape="http://www.inkscape.org/namespaces/inkscape"
   width="512"
   height="512"
   viewBox="0 0 135.46667 135.46667"
   version="1.1"
   id="svg8"
   inkscape:version="0.92.4 5da689c313, 2019-01-14"
   sodipodi:docname="clash.svg">
  <defs
     id="defs2">
    <linearGradient
       inkscape:collect="always"
       id="linearGradient3730">
      <stop
         style="stop-color:#29476d;stop-opacity:1"
         offset="0"
         id="stop3726" />
      <stop
         style="stop-color:#152849;stop-opacity:1"
         offset="1"
         id="stop3728" />
    </linearGradient>
    <linearGradient
       inkscape:collect="always"
       xlink:href="#linearGradient3730"
       id="linearGradient3732"
       x1="106.05251"
       y1="47.599934"
       x2="106.27493"
       y2="236.58803"
       gradientUnits="userSpaceOnUse"
       gradientTransform="matrix(0.67596101,0,0,0.67596101,-0.40559449,134.88946)" />
  </defs>
  <sodipodi:namedview
     id="base"
     pagecolor="#ffffff"
     bordercolor="#666666"
     borderopacity="1.0"
     inkscape:pageopacity="0.0"
     inkscape:pageshadow="2"
     inkscape:zoom="0.35"
     inkscape:cx="-17.142857"
     inkscape:cy="560"
     inkscape:document-units="mm"
     inkscape:current-layer="layer1"
     showgrid="false"
     inkscape:snap-grids="true"
     inkscape:window-width="1600"
     inkscape:window-height="838"
     inkscape:window-x="0"
     inkscape:window-y="36"
     inkscape:window-maximized="1"
     units="px"
     width="512px" />
  <metadata
     id="metadata5">
    <rdf:RDF>
      <cc:Work
         rdf:about="">
        <dc:format>image/svg+xml</dc:format>
        <dc:type
           rdf:resource="http://purl.org/dc/dcmitype/StillImage" />
        <dc:title></dc:title>
      </cc:Work>
    </rdf:RDF>
  </metadata>
  <g
     inkscape:label="Layer 1"
     inkscape:groupmode="layer"
     id="layer1"
     transform="translate(0,-161.53333)">
    <path
       style="fill:url(#linearGradient3732);stroke-width:0.30115727"
       d="m 50.53228,293.13921 c -9.731832,-0.28362 -20.807423,-1.28766 -22.470398,-2.03702 -0.519195,-0.23396 -2.481047,-0.51388 -4.359679,-0.62204 -7.124987,-0.41022 -12.340132,-2.52057 -16.3977922,-6.63551 -2.9546438,-2.99636 -4.2029499,-5.26115 -4.9748675,-9.02596 -1.66093339,-8.10061 0.4988303,-14.71381 6.3362215,-19.4016 2.7706302,-2.225 5.4975812,-3.49843 7.8867972,-3.68302 2.173718,-0.16791 3.281316,0.18649 3.991344,1.27717 0.487644,0.74907 0.483469,0.82445 -0.08883,1.59969 -0.330314,0.44747 -1.600438,1.53245 -2.82249,2.41108 -5.22597,3.75732 -7.096353,6.0635 -7.7708461,9.58142 -0.629225,3.28182 0.4995671,7.4038 2.7275291,9.96008 1.33814,1.53531 3.55639,2.92975 5.973345,3.75496 1.953797,0.66706 8.517441,1.5304 8.877787,1.1677 0.10528,-0.10592 0.578146,-3.97385 1.050723,-8.5952 1.421008,-13.89606 2.05712,-19.83064 2.236913,-20.86892 0.09383,-0.54194 0.429464,-3.26113 0.745811,-6.04265 0.558497,-4.9105 1.315246,-10.89829 2.834734,-22.42995 3.897665,-29.58002 7.664219,-51.26242 9.806249,-56.45016 0.55498,-1.3441 0.758168,-1.5594 1.471633,-1.5594 3.028308,0 8.345822,6.74545 16.017259,20.31845 0.897728,1.58834 1.072301,1.6388 3.499464,1.01156 3.532118,-0.91278 7.406389,-1.22819 15.147339,-1.23315 7.694913,-0.005 11.698172,0.29963 16.000296,1.21731 3.32352,0.70895 2.92834,1.0258 5.763888,-4.62132 1.3976,-2.78339 2.75927,-5.40063 3.02591,-5.81607 0.26663,-0.41543 1.20862,-1.97896 2.09329,-3.47452 1.88623,-3.18871 4.18178,-6.22579 5.22638,-6.91469 0.40663,-0.26817 1.07077,-0.48757 1.47589,-0.48757 0.63909,0 0.82166,0.25743 1.37982,1.94559 1.27722,3.86296 2.87553,11.66673 5.88242,28.72092 0.23438,1.32939 0.96778,5.81606 1.62976,9.9704 0.66197,4.15433 1.40211,8.77696 1.64474,10.27252 0.24262,1.49557 0.65697,4.21476 0.92078,6.04267 0.26379,1.82791 0.79631,5.49883 1.18333,8.1576 1.978,13.58828 2.34072,16.1401 3.0277,21.30038 2.90867,21.84817 4.37541,38.14268 3.51162,39.01207 -0.74523,0.75007 -11.07598,1.66039 -23.64792,2.08382 -7.29053,0.24554 -51.222289,0.31526 -58.836172,0.0934 z m 29.094918,-63.0919 c 0.755602,-0.58051 1.373812,-0.93848 1.373812,-0.7955 0,0.143 0.537435,0.61797 1.194308,1.05549 0.85697,0.57078 1.585785,0.79548 2.580297,0.79548 1.432454,0 3.129644,-0.75898 3.129644,-1.39957 0,-0.54921 -0.539438,-0.62324 -2.138697,-0.29352 -1.706914,0.35193 -3.205291,-0.19298 -4.034919,-1.46737 -0.680348,-1.04508 -1.056639,-0.97234 -2.503551,0.48398 l -1.24318,1.25124 -2.094166,-0.19589 c -1.909116,-0.17859 -2.094153,-0.1464 -2.094153,0.36431 0,0.76537 1.048848,1.21194 2.903802,1.23637 1.328562,0.0175 1.751491,-0.13208 2.926803,-1.03502 z m -17.924203,-9.70536 c 1.515325,-1.21864 2.186459,-2.62548 2.187037,-4.58447 6.72e-4,-3.18177 -1.99818,-5.44024 -5.063057,-5.71995 -6.450529,-0.58872 -8.739988,8.09288 -2.891371,10.96399 0.579698,0.28457 1.565031,0.40871 2.765555,0.3484 1.54593,-0.0777 2.059461,-0.2501 3.001836,-1.00797 z m 45.708825,0.49109 c 1.86714,-0.95873 2.81175,-2.45352 2.95207,-4.6715 0.15009,-2.37243 -0.61412,-4.03276 -2.4053,-5.22581 -1.05111,-0.70011 -1.56661,-0.83122 -3.26825,-0.83122 -1.80168,0 -2.14513,0.10002 -3.17384,0.92392 -1.41508,1.13337 -2.504407,3.1958 -2.504407,4.74161 0,1.99754 1.749787,4.58459 3.602217,5.32586 1.27402,0.50983 3.53384,0.38599 4.79751,-0.26286 z"
       id="path3724"
       inkscape:connector-curvature="0" />
  </g>
</svg>
